<?xml version="1.0" standalone="no"?>
<!DOCTYPE svg PUBLIC "-//W3C//DTD SVG 20010904//EN"
 "http://www.w3.org/TR/2001/REC-SVG-20010904/DTD/svg10.dtd">
<svg version="1.0" xmlns="http://www.w3.org/2000/svg"
 width="512.000000pt" height="512.000000pt" viewBox="0 0 512.000000 512.000000"
 preserveAspectRatio="xMidYMid meet">
<metadata>
Created by potrace 1.14, written by Peter Selinger 2001-2017
</metadata>
<g transform="translate(0.000000,512.000000) scale(0.100000,-0.100000)"
fill="#000000" stroke="none">
<path d="M2315 5114 c-16 -3 -77 -11 -135 -19 -325 -46 -697 -182 -975 -358
-322 -204 -618 -500 -822 -822 -196 -310 -333 -710 -374 -1093 -17 -166 -7
-512 21 -672 132 -761 562 -1393 1219 -1789 308 -187 637 -298 1021 -346 106
-13 520 -14 570 -1 14 3 49 9 79 12 30 3 64 8 75 10 46 10 122 26 146 30 58
11 183 49 300 91 668 241 1223 778 1497 1448 36 86 54 117 84 143 21 18 50 58
66 90 l28 57 0 465 c0 510 -3 549 -66 809 -86 354 -269 722 -499 1007 -82 101
-273 292 -374 374 -286 231 -658 415 -1012 500 -213 52 -300 62 -569 65 -137
2 -263 1 -280 -1z m398 -1870 c480 -106 704 -675 426 -1081 -103 -150 -272
-266 -424 -290 -16 -2 -46 -8 -65 -12 -81 -16 -219 -2 -322 34 -202 71 -359
232 -436 448 -23 64 -26 88 -26 212 -1 154 14 220 75 336 92 172 275 312 461
353 87 19 225 19 311 0z"/>
</g>
</svg>
